<svg xmlns="http://www.w3.org/2000/svg" width="48" height="48" shape-rendering="crispEdges">
  <rect width="48" height="48" fill="#006900"/>
  <path fill="none" stroke="#7fd85f" transform="translate(0,1)scale(2)" d="M8 0h1m1 0h1m1 0h1m1 0h1m1 0h1m1 0h1m1 0h4M13 1h1m1 0h1m1 0h1m1 0h1m1 0h1m1 0h1M6 2h1m3 0h1m1 0h1m1 0h1m1 0h1m1 0h3m1 0h2M11 3h1m3 0h1m1 0h1m1 0h1m1 0h1m1 0h1M4 4h1m1 0h1m1 0h1m1 0h1m1 0h1m1 0h1m1 0h8M9 5h1m3 0h1m1 0h1m1 0h1m1 0h1m1 0h1m1 0h1M6 6h1m1 0h1m1 0h1m1 0h1m1 0h1m1 0h1m1 0h6M11 7h1m1 0h1m1 0h1m1 0h1m1 0h1m1 0h1m1 0h1M4 8h1m1 0h1m1 0h1m1 0h1m1 0h1m1 0h1m1 0h8M9 9h1m1 0h1m1 0h1m1 0h1m1 0h1m1 0h3m1 0h1M2 10h1m3 0h1m1 0h1m1 0h1m1 0h1m1 0h3m1 0h6M11 11h1m1 0h1m1 0h1m1 0h1m1 0h1m1 0h3M0 12h1m3 0h1m1 0h1m1 0h1m1 0h1m1 0h3m1 0h8M9 13h1m1 0h1m1 0h1m1 0h1m1 0h1m1 0h5M2 14h1m1 0h1m1 0h1m1 0h1m1 0h1m1 0h1m1 0h10M7 15h1m3 0h1m1 0h1m1 0h1m1 0h1m1 0h1m1 0h3M0 16h1m1 0h1m1 0h1m1 0h1m1 0h1m1 0h1m1 0h12M5 17h1m1 0h1m1 0h1m1 0h1m1 0h1m1 0h1m1 0h1m1 0h5M2 18h1m1 0h1m1 0h1m1 0h1m1 0h1m1 0h1m1 0h10M7 19h1m1 0h1m1 0h1m1 0h1m1 0h1m1 0h3m1 0h3M0 20h1m1 0h1m1 0h1m1 0h1m1 0h3m1 0h12M5 21h1m1 0h1m1 0h1m1 0h1m1 0h1m1 0h9M0 22h1m1 0h1m1 0h1m1 0h1m1 0h1m1 0h14M3 23h1m3 0h1m1 0h1m1 0h1m1 0h1m1 0h1m1 0h7"/>
</svg>